# xmcd
#
# Track frame offsets:
#	150
#	9737
#	20895
#	32070
#	42573
#	56188
#	68750
#	79605
#	92112
#	102658
#	115772
#	126202
#	137703
#	148576
#	161732
#	175393
#	189540
#	202675
#	212510
#	222988
#	235784
#	247660
#	259281
#	271754
#
# Disc length: 3774 seconds
#
# Revision: 0
# Processed by: cddbd v1.5.2PL0 Copyright (c) Steve Scherf et al.
# Submitted via: dBpowerAMP V4.0
#
DISCID=5f0ebc18
DTITLE=Roland 'Soldat' Lebrun - Les Années Starr 1942-1953 CD2
DYEAR=2004
DGENRE=
TTITLE0=Le Coeur délaissé
TTITLE1=La Bonté durera toujours
TTITLE2=La Complainte d'une mère
TTITLE3=La Destinée
TTITLE4=La Mansarde
TTITLE5=La Prière d'une maman
TTITLE6=La Vie d'un cowboy
TTITLE7=Le Grand St-Laurent
TTITLE8=Le Lierre
TTITLE9=Le Mendiant des rues
TTITLE10=Le Sinistre d'une ville
TTITLE11=Lettre d'amour à sa fiancée
TTITLE12=Lettre d'un soldat canadien
TTITLE13=Ma fille chérie
TTITLE14=La Marche des aviateurs
TTITLE15=Mère, sèche tes larmes
TTITLE16=Mes rêves se réalisent
TTITLE17=Mon bonheur
TTITLE18=Mon petit gars
TTITLE19=La Mort d'un cowboy des prairies
TTITLE20=N'oublie pas ta prière
TTITLE21=Ne pleure plus
TTITLE22=Pour lui, je vais mourir
TTITLE23=Pour oublier cette vie
EXTD=
EXTT0=
EXTT1=
EXTT2=
EXTT3=
EXTT4=
EXTT5=
EXTT6=
EXTT7=
EXTT8=
EXTT9=
EXTT10=
EXTT11=
EXTT12=
EXTT13=
EXTT14=
EXTT15=
EXTT16=
EXTT17=
EXTT18=
EXTT19=
EXTT20=
EXTT21=
EXTT22=
EXTT23=
PLAYORDER=
